<svg width="512" height="512" viewBox="0 0 512 512" fill="none" xmlns="http://www.w3.org/2000/svg">
  <rect width="512" height="512" rx="112" fill="#071A33"/>
  <circle cx="256" cy="256" r="164" fill="#123A67"/>
  <path d="M203 164C203 151.85 212.85 142 225 142C237.15 142 247 151.85 247 164V348C247 360.15 237.15 370 225 370C212.85 370 203 360.15 203 348V164Z" fill="#D7F0FF"/>
  <path d="M265 164C265 151.85 274.85 142 287 142C299.15 142 309 151.85 309 164V348C309 360.15 299.15 370 287 370C274.85 370 265 360.15 265 348V164Z" fill="#D7F0FF"/>
  <path d="M166 96C166 84.954 174.954 76 186 76H326C337.046 76 346 84.954 346 96C346 107.046 337.046 116 326 116H186C174.954 116 166 107.046 166 96Z" fill="#4CC9F0"/>
</svg>
